HIERARCHY
ROOT Root
{
	OFFSET 0.00000 0.00000 0.00000
	CHANNELS 6 Xposition Yposition Zposition Zrotation Xrotation Yrotation
	JOINT Hips
	{
		OFFSET 0 0 0	
		CHANNELS 3 Zrotation Xrotation Yrotation
		JOINT Spine
		{
			OFFSET 0 4 0	
			CHANNELS 3 Zrotation Xrotation Yrotation
			JOINT Spine1
			{
				OFFSET 0 19.4 0	
				CHANNELS 3 Zrotation Xrotation Yrotation
				JOINT Spine2
				{
					OFFSET 0 16.6 0	
					CHANNELS 3 Zrotation Xrotation Yrotation
					JOINT LeftCollar
					{
						OFFSET 0 10 0	
						CHANNELS 3 Zrotation Xrotation Yrotation
						JOINT LeftArm
						{
							OFFSET 15.6 -2 3	
							CHANNELS 3 Zrotation Xrotation Yrotation
							JOINT LeftForeArm
							{
								OFFSET 3.5 -27 -1	
								CHANNELS 3 Zrotation Xrotation Yrotation
								JOINT LeftHand
								{
									OFFSET 1 -27 1	
									CHANNELS 3 Zrotation Xrotation Yrotation
									End Site
									{
										OFFSET 0 -15 0
									}
								}
							}
						}
					}
					JOINT RightCollar
					{
						OFFSET 0 10 0	
						CHANNELS 3 Zrotation Xrotation Yrotation
						JOINT RightArm
						{
							OFFSET -15.6 -2 3	
							CHANNELS 3 Zrotation Xrotation Yrotation
							JOINT RightForeArm
							{
								OFFSET -3.5 -27 -1	
								CHANNELS 3 Zrotation Xrotation Yrotation
								JOINT RightHand
								{
									OFFSET -1 -27 1	
									CHANNELS 3 Zrotation Xrotation Yrotation
									End Site
									{
										OFFSET 0 -15 0
									}
								}
							}
						}
					}
					JOINT Neck
					{
						OFFSET 0 10 0	
						CHANNELS 3 Zrotation Xrotation Yrotation
						JOINT Head
						{
							OFFSET 0 12.7 3	
							CHANNELS 3 Zrotation Xrotation Yrotation
							End Site
							{
								OFFSET 0 12.7 3
							}
						}
					}
				}
			}
		}
	}
	JOINT LeftHip
	{
		OFFSET 0 0 0	
		CHANNELS 3 Zrotation Xrotation Yrotation
		JOINT LeftUpLeg
		{
			OFFSET 8.8 -6 0	
			CHANNELS 3 Zrotation Xrotation Yrotation
			JOINT LeftLeg
			{
				OFFSET 0 -39 2	
				CHANNELS 3 Zrotation Xrotation Yrotation
				JOINT LeftFoot
				{
					OFFSET 0 -43 -2	
					CHANNELS 3 Zrotation Xrotation Yrotation
					JOINT LeftFootFront
					{
						OFFSET 0 -7 8.5	
						CHANNELS 3 Zrotation Xrotation Yrotation
						End Site
						{
							OFFSET 0 -0.5 9
						}
					}
				}
				JOINT LeftHeel
				{
					OFFSET 0 -43 -2	
					CHANNELS 3 Zrotation Xrotation Yrotation
					End Site
					{
						OFFSET 0 -7.5 -5
					}
				}
			}
		}
	}
	JOINT RightHip
	{
		OFFSET 0 0 0	
		CHANNELS 3 Zrotation Xrotation Yrotation
		JOINT RightUpLeg
		{
			OFFSET -8.8 -6 0	
			CHANNELS 3 Zrotation Xrotation Yrotation
			JOINT RightLeg
			{
				OFFSET 0 -39 2	
				CHANNELS 3 Zrotation Xrotation Yrotation
				JOINT RightFoot
				{
					OFFSET 0 -43 -2	
					CHANNELS 3 Zrotation Xrotation Yrotation
					JOINT RightFootFront
					{
						OFFSET 0 -7 8.5	
						CHANNELS 3 Zrotation Xrotation Yrotation
						End Site
						{
							OFFSET 0 -0.5 9
						}
					}
				}
				JOINT RightHeel
				{
					OFFSET 0 -43 -2	
					CHANNELS 3 Zrotation Xrotation Yrotation
					End Site
					{
						OFFSET 0 -7.5 -5
					}
				}
			}
		}
	}
}
MOTION
Frames: 6
Frame Time: 0.008
0 95.042 0 -0 0 -0 1.2921 7.3877 7.3617 -2.0201 -4.673 -2.9076 -2.0201 -4.673 -2.9076 -1.6803 -3.9323 -2.4304 -0 0 -0 1.5304 7.402 9.5522 0.53889 -4.8604 -10.609 -0.98444 1.7753 1.6073 -0 0 -0 5.7558 7.8777 12.395 0.52079 0.5781 2.3661 -2.4567 -3.6703 -1.9106 2.9383 3.9644 6.7567 1.4166 -0.090286 4.5367 1.2921 7.3877 7.3617 -5.8571 -8.0107 -8.1053 0.15515 1.6485 1.8784 2.7407 0.052957 1.4499 -0 0 3.5018e-08 -0 0 -0 1.2921 7.3877 7.3617 29.109 45.098 -45.568 9.9907 -53.99 37.346 0.14268 -3.4858 0.46949 0 0 -1.6509e-07 -0 0 -0 
-0.0010566 95.042 -0.00033409 -0 0 -0 1.2949 7.3791 7.3513 -2.0167 -4.6691 -2.9024 -2.0167 -4.6691 -2.9024 -1.6775 -3.9291 -2.426 -0 0 -0 1.5249 7.3972 9.5563 0.54031 -4.8599 -10.612 -0.99009 1.7753 1.6028 -0 0 -0 5.7522 7.8702 12.39 0.52038 0.57672 2.3717 -2.4612 -3.6639 -1.9142 2.9357 3.9632 6.7512 1.4164 -0.087899 4.5353 1.2949 7.3791 7.3513 -5.8586 -8.0037 -8.0914 0.15655 1.6491 1.8771 2.7407 0.053192 1.4481 9.7178e-05 0.00087813 -0.00099252 -0 0 -0 1.2949 7.3791 7.3513 29.099 45.102 -45.557 9.9824 -53.983 37.341 0.14332 -3.4852 0.46961 -0.0012942 -0.00060621 0.00064554 -0 0 -0 
-0.0021598 95.042 -0.00065395 -0 0 -0 1.2987 7.3687 7.3386 -2.0129 -4.6644 -2.896 -2.0129 -4.6644 -2.8959 -1.6743 -3.9251 -2.4207 -0 0 -0 1.5186 7.3915 9.5613 0.54183 -4.8591 -10.615 -0.99503 1.7797 1.5917 -0 0 -0 5.7479 7.8614 12.384 0.5201 0.57485 2.3786 -2.461 -3.6663 -1.9186 2.9329 3.9618 6.7445 1.4164 -0.084868 4.5335 1.2987 7.3687 7.3386 -5.8607 -7.995 -8.0743 0.15827 1.6497 1.8753 2.7406 0.054356 1.4448 9.8569e-05 0.0010757 -0.0012178 -0 0 -0 1.2987 7.3687 7.3386 29.086 45.107 -45.544 9.9721 -53.975 37.335 0.1428 -3.4851 0.47031 -0.0016016 -0.00073721 0.00079221 -0 0 -0 
-0.0033116 95.042 -0.00095757 -0 0 -0 1.3034 7.3563 7.3234 -2.0085 -4.659 -2.8882 -2.0085 -4.659 -2.8882 -1.6707 -3.9205 -2.4142 -0 0 -0 1.5115 7.385 9.5672 0.54334 -4.8582 -10.619 -1.0003 1.7852 1.5785 -0 0 -0 5.743 7.8513 12.376 0.52003 0.57236 2.3869 -2.4609 -3.6689 -1.9239 2.93 3.9605 6.7363 1.4166 -0.081097 4.5313 1.3034 7.3563 7.3234 -5.8635 -7.9846 -8.0538 0.16034 1.6504 1.8733 2.7405 0.055771 1.4409 9.0623e-05 0.0012743 -0.0014628 -0 0 -0 1.3034 7.3563 7.3234 29.072 45.113 -45.529 9.9597 -53.967 37.327 0.1421 -3.485 0.47117 -0.0019304 -0.00090284 0.00096481 -0 0 -0 
-0.0045138 95.042 -0.001243 -0 0 -0 1.3093 7.3423 7.306 -2.004 -4.6529 -2.8794 -2.004 -4.6529 -2.8794 -1.667 -3.9154 -2.4068 -0 0 -0 1.5042 7.3783 9.5739 0.54473 -4.8571 -10.624 -1.0056 1.7918 1.5637 -0 0 -0 5.7377 7.8406 12.367 0.52027 0.5692 2.3963 -2.4607 -3.6721 -1.9301 2.9273 3.9595 6.7267 1.4171 -0.076511 4.5286 1.3093 7.3423 7.306 -5.8672 -7.9726 -8.0304 0.16268 1.6511 1.8709 2.7404 0.05743 1.4362 6.811e-05 0.0014564 -0.0016871 -0 0 -0 1.3093 7.3423 7.306 29.057 45.122 -45.513 9.9455 -53.958 37.319 0.14115 -3.485 0.4722 -0.0022271 -0.001025 0.0011167 -0 0 -0 
-0.0057681 95.042 -0.0015083 -0 0 -0 1.3163 7.3272 7.2872 -1.9996 -4.6467 -2.8697 -1.9996 -4.6467 -2.8697 -1.6634 -3.9101 -2.3987 -0 0 -0 1.4971 7.3719 9.5811 0.54593 -4.8558 -10.63 -1.0105 1.7992 1.5477 -0 0 -0 5.7324 7.83 12.357 0.52089 0.56546 2.4067 -2.4603 -3.6758 -1.9369 2.925 3.9592 6.7159 1.4179 -0.071087 4.5254 1.3163 7.3272 7.2872 -5.8717 -7.9594 -8.005 0.16521 1.6515 1.8684 2.7403 0.059309 1.431 6.8565e-06 0.0016024 -0.0018799 -0 0 -0 1.3163 7.3272 7.2872 29.042 45.132 -45.497 9.93 -53.95 37.309 0.13996 -3.485 0.47336 -0.0024668 -0.0011415 0.0012439 -0 0 -0 
